<svg width="291" height="61" viewBox="0 0 291 61" fill="none" xmlns="http://www.w3.org/2000/svg">
<path d="M55.7563 50.3447L43.096 14.6177H49.1864L59.5448 45.1176H58.3459L68.6564 14.6177H74.7468L62.0865 50.3447H55.7563ZM78.9496 50.3447V14.6177H102.496V19.6531H84.6084V29.9156H101.537V34.9509H84.6084V45.3094H102.496V50.3447H78.9496ZM107.751 50.3447V14.6177H120.747C123.145 14.6177 125.255 15.0653 127.077 15.9605C128.9 16.8237 130.322 18.1025 131.345 19.7969C132.4 21.4594 132.928 23.4576 132.928 25.7914C132.928 28.2531 132.304 30.3632 131.058 32.1216C129.843 33.8799 128.196 35.1587 126.118 35.958L134.367 50.3447H127.941L119.165 34.7591L122.857 36.9171H113.41V50.3447H107.751ZM113.41 31.8818H120.843C122.154 31.8818 123.289 31.626 124.248 31.1145C125.207 30.603 125.942 29.8996 126.454 29.0044C126.997 28.0773 127.269 26.9903 127.269 25.7434C127.269 24.4966 126.997 23.4256 126.454 22.5304C125.942 21.6033 125.207 20.8999 124.248 20.4204C123.289 19.9088 122.154 19.6531 120.843 19.6531H113.41V31.8818ZM139.128 50.3447V14.6177H144.404L157.831 33.2245H155.194L168.381 14.6177H173.657V50.3447H168.046V21.2836L170.156 21.859L156.68 40.274H156.105L142.917 21.859L144.787 21.2836V50.3447H139.128ZM198.403 50.9202C195.813 50.9202 193.399 50.4566 191.162 49.5295C188.956 48.6023 187.005 47.3075 185.311 45.6451C183.648 43.9826 182.338 42.0324 181.379 39.7945C180.451 37.5565 179.988 35.1108 179.988 32.4572C179.988 29.8037 180.451 27.358 181.379 25.12C182.338 22.8501 183.648 20.8999 185.311 19.2694C186.973 17.607 188.924 16.3281 191.162 15.433C193.399 14.5058 195.813 14.0422 198.403 14.0422C201.024 14.0422 203.438 14.5058 205.644 15.433C207.882 16.3281 209.832 17.607 211.495 19.2694C213.189 20.9319 214.5 22.8821 215.427 25.12C216.354 27.358 216.818 29.8037 216.818 32.4572C216.818 35.1108 216.338 37.5565 215.379 39.7945C214.452 42.0324 213.157 43.9826 211.495 45.6451C209.832 47.3075 207.882 48.6023 205.644 49.5295C203.406 50.4566 200.992 50.9202 198.403 50.9202ZM198.403 45.741C200.257 45.741 201.952 45.4053 203.486 44.7339C205.053 44.0625 206.411 43.1354 207.562 41.9525C208.713 40.7376 209.608 39.3309 210.248 37.7324C210.887 36.1019 211.207 34.3435 211.207 32.4572C211.207 30.571 210.887 28.8286 210.248 27.2301C209.608 25.6315 208.713 24.2248 207.562 23.01C206.411 21.7951 205.053 20.852 203.486 20.1806C201.952 19.5092 200.257 19.1735 198.403 19.1735C196.549 19.1735 194.838 19.5092 193.272 20.1806C191.737 20.852 190.394 21.7951 189.243 23.01C188.092 24.2248 187.197 25.6315 186.558 27.2301C185.95 28.8286 185.647 30.571 185.647 32.4572C185.647 34.3435 185.95 36.1019 186.558 37.7324C187.197 39.3309 188.092 40.7376 189.243 41.9525C190.394 43.1354 191.753 44.0625 193.32 44.7339C194.886 45.4053 196.581 45.741 198.403 45.741ZM223.145 50.3447V14.6177H227.7L247.746 42.2882L245.588 42.6239V14.6177H251.199V50.3447H246.643L226.741 22.4825L228.803 22.0988V50.3447H223.145ZM258.596 50.3447V14.6177H270.297C274.006 14.6177 277.219 15.369 279.937 16.8716C282.686 18.3423 284.812 20.4204 286.315 23.1059C287.817 25.7914 288.569 28.9085 288.569 32.4572C288.569 35.974 287.817 39.0911 286.315 41.8086C284.812 44.4941 282.686 46.5882 279.937 48.0908C277.219 49.5934 274.006 50.3447 270.297 50.3447H258.596ZM264.255 45.3094H270.393C272.919 45.3094 275.109 44.7819 276.963 43.7268C278.85 42.6718 280.304 41.1852 281.327 39.267C282.35 37.3487 282.862 35.0788 282.862 32.4572C282.862 29.8357 282.334 27.5817 281.279 25.6955C280.256 23.7773 278.818 22.2906 276.963 21.2356C275.109 20.1806 272.919 19.6531 270.393 19.6531H264.255V45.3094Z" fill="black"/>
<path d="M27.72 23.4614C32.6462 23.4614 36.642 19.4864 36.679 14.5688H1.05591V23.4614H27.72Z" fill="black" stroke="black" stroke-width="0.136808"/>
<path d="M24.9534 27.9761C27.409 27.9761 29.4006 29.9668 29.4006 32.4224C29.4006 34.878 27.409 36.8687 24.9534 36.8687H1.05591V27.9761H24.9534Z" fill="black" stroke="black" stroke-width="0.136808"/>
<path d="M27.7201 41.3833C32.6463 41.3833 36.6422 45.3584 36.6791 50.2759H1.05603V41.3833H27.7201Z" fill="black" stroke="black" stroke-width="0.136808"/>
</svg>
